<?xml version="1.0" encoding="utf-8"?>
<svg width="720px" height="200px" viewBox="0 0 720 200" version="1.1" xmlns:xlink="http://www.w3.org/1999/xlink" xmlns="http://www.w3.org/2000/svg">
  <g id="PipeScript">
    <g id="GreaterThanP" fill="#4488FF">
      <path d="M135.938 146.414L135.938 105.984L150.422 105.984Q166.945 105.984 176.121 96.9492Q185.297 87.9141 185.297 73.8516Q185.297 60 177.07 52.793Q168.844 45.5859 153.305 45.5859L128.977 45.5859L128.977 146.414L135.938 146.414ZM135.938 99.5859L135.938 51.9844L152.039 51.9844Q178.125 51.9844 178.125 74.6953Q178.125 86.5781 171.023 93.082Q163.922 99.5859 150.281 99.5859L135.938 99.5859ZM40.0313 128.555L40.0313 135.305L98.6016 105.633L98.6016 104.367L40.0313 71.5313L40.0313 78.1406L87.7031 104.789L87.7031 105.07L40.0313 128.555Z" />
    </g>
    <g id="I1" fill="#4488FF">
      <path d="M202.992 168.961L202.992 72.9609L207.445 72.9609L207.445 168.961L202.992 168.961Z" />
    </g>
    <g id="peScr" fill="#4488FF">
      <path d="M379.195 134.883L379.195 142.828Q382.781 144.938 389.566 146.555Q396.352 148.172 401.555 148.172Q416.25 148.172 424.301 140.859Q432.352 133.547 432.352 121.945Q432.352 113.859 427.676 107.637Q423 101.414 408.867 93.3984Q395.227 85.5234 391.113 80.9531Q387 76.3828 387 68.6484Q387 60.6328 393.012 55.4297Q399.023 50.2266 409.289 50.2266Q419.344 50.2266 428.203 54.2344L428.203 46.9219Q419.203 43.8984 410.203 43.8984Q396.352 43.8984 388.055 51.3516Q379.758 58.8047 379.758 69.4922Q379.758 77.3672 383.836 83.3789Q387.914 89.3906 403.242 98.3203Q416.953 106.266 421.066 110.871Q425.18 115.477 425.18 123.211Q425.18 132 419.063 136.887Q412.945 141.773 401.133 141.773Q390.023 141.773 379.195 134.883ZM234.352 133.617L234.07 133.617L234.07 179.531L227.602 179.531L227.602 74.4141L234.07 74.4141L234.07 89.25L234.352 89.25Q238.219 81.3047 245.426 76.9805Q252.633 72.6563 261.281 72.6563Q274.992 72.6563 282.691 82.1133Q290.391 91.5703 290.391 107.813Q290.391 125.883 281.566 137.027Q272.742 148.172 258.258 148.172Q242.086 148.172 234.352 133.617ZM309.797 110.695Q309.797 125.531 316.652 133.898Q323.508 142.266 335.461 142.266Q347.555 142.266 359.086 133.336L359.086 140.227Q347.906 148.172 334.125 148.172Q320.203 148.172 311.625 138.188Q303.047 128.203 303.047 109.992Q303.047 94.2422 312.012 83.4492Q320.977 72.6563 335.32 72.6563Q348.75 72.6563 355.922 82.0781Q363.094 91.5 363.094 107.813L363.094 110.695L309.797 110.695ZM499.148 143.25Q491.133 148.172 480.023 148.172Q465.328 148.172 456.328 138.082Q447.328 127.992 447.328 111.68Q447.328 94.5234 457.453 83.5898Q467.578 72.6563 483.469 72.6563Q491.695 72.6563 499.43 76.0313L499.43 83.3438Q491.695 78.5625 482.484 78.5625Q469.828 78.5625 461.953 87.668Q454.078 96.7734 454.078 111.258Q454.078 125.25 461.285 133.758Q468.492 142.266 480.305 142.266Q491.133 142.266 499.148 136.5L499.148 143.25ZM542.813 78.8438Q547.172 78.8438 550.406 81.1641L550.406 74.2734Q547.242 73.0078 543.234 73.0078Q536.203 73.0078 530.859 77.5781Q525.516 82.1484 523.055 90.375L522.773 90.375L522.773 74.4141L516.445 74.4141L516.445 146.414L522.773 146.414L522.773 112.594Q522.773 96.4219 528.539 87.6328Q534.305 78.8438 542.813 78.8438ZM234.07 106.828L234.07 115.898Q234.07 126.727 240.891 134.496Q247.711 142.266 258.82 142.266Q269.859 142.266 276.75 132.809Q283.641 123.352 283.641 107.953Q283.641 94.4531 277.313 86.5078Q270.984 78.5625 260.438 78.5625Q247.852 78.5625 240.961 87Q234.07 95.4375 234.07 106.828ZM356.344 104.789Q355.922 92.3438 350.367 85.4531Q344.813 78.5625 335.039 78.5625Q324.914 78.5625 318.27 85.3477Q311.625 92.1328 310.078 104.789L356.344 104.789Z" />
    </g>
    <g id="I2" fill="#4488FF">
      <path d="M561.07 168.961L561.07 72.9609L565.523 72.9609L565.523 168.961L561.07 168.961Z" />
    </g>
    <g id="pt" fill="#4488FF">
      <path d="M685.313 147.82Q689.742 147.82 694.805 145.43L694.805 139.383Q690.164 141.984 686.156 141.984Q680.531 141.984 678.176 138.645Q675.82 135.305 675.82 127.852L675.82 80.3203L694.805 80.3203L694.805 74.4141L675.82 74.4141L675.82 53.5313Q674.273 54.0938 672.586 54.5859Q670.898 55.1484 669.352 55.7109L669.352 74.4141L656.414 74.4141L656.414 80.3203L669.352 80.3203L669.352 128.695Q669.352 147.82 685.313 147.82ZM592.148 133.617L592.43 133.617Q600.164 148.172 616.336 148.172Q630.82 148.172 639.645 137.027Q648.469 125.883 648.469 107.813Q648.469 91.5703 640.77 82.1133Q633.07 72.6563 619.359 72.6563Q610.711 72.6563 603.504 76.9805Q596.297 81.3047 592.43 89.25L592.148 89.25L592.148 74.4141L585.68 74.4141L585.68 179.531L592.148 179.531L592.148 133.617ZM592.148 115.898L592.148 106.828Q592.148 95.4375 599.039 87Q605.93 78.5625 618.516 78.5625Q629.063 78.5625 635.391 86.5078Q641.719 94.4531 641.719 107.953Q641.719 123.352 634.828 132.809Q627.938 142.266 616.898 142.266Q605.789 142.266 598.969 134.496Q592.148 126.727 592.148 115.898Z" />
    </g>
  </g>
</svg>