<?xml version="1.0" encoding="utf-8"?>
<!-- Generated with PSSVG 0.2.10 <https://github.com/StartAutomating/PSSVG> -->
<svg viewBox="0 0 1920 1080" xmlns:xlink="http://www.w3.org/1999/xlink" xmlns="http://www.w3.org/2000/svg">
  <defs>
    <style type="text/css">@import url('https://fonts.googleapis.com/css?family=Roboto')</style>
    <marker id="Head" viewBox="0 0 100 100" markerWidth="75" markerHeight="75" refX="50" refY="50" orient="auto-start-reverse">
      <polygon points="30,0 35,0 60,50 15,100 12.5,100 55,50" fill="#4488ff" class="foreground-fill" />
    </marker>
    <marker id="Tail" viewBox="0 0 100 100" markerWidth="46.3525491562421" markerHeight="46.3525491562421" refX="50" refY="50" orient="auto-start-reverse">
      <polygon points="30,0 35,0 60,50 15,100 12.5,100 55,50" fill="#4488ff" class="foreground-fill" />
    </marker>
  </defs>
  <text font-size="192" text-anchor="middle" dominant-baseline="middle" x="50%" y="50%" style="font-family: &quot;Roboto&quot;, sans-serif" fill="#4488ff" class="foreground-fill">
    <tspan font-size=".9em">P</tspan>
    <tspan font-size=".6em" dx="-.4em">|</tspan>
    <tspan font-size="1em" dx="-.25em">peScr</tspan>
    <tspan font-size=".6em" dx="-.4em">|</tspan>
    <tspan font-size=".9em" dx="-.25em">pt</tspan>
  </text>
  <path stroke="#4488ff" class="foreground-stroke" fill="transparent" marker-end="url(#Head)" stroke-width="1.2" opacity="0.95" d="M 490 540 A 470 470 0 1 1 960 1010 A 470 470 0 0 1 490 540">
    <animateTransform attributeName="transform" from="0 960 540" to="360 960 540" dur="60s" repeatCount="indefinite" attributeType="XML" type="rotate" />
  </path>
  <path stroke="#4488ff" class="foreground-stroke" fill="transparent" marker-end="url(#Head)" stroke-width="1.2" opacity="0.95" d="M 1430 540 A 470 470 0 1 1 960 70 A 470 470 0 0 1 1430 540">
    <animateTransform attributeName="transform" from="0 960 540" to="360 960 540" dur="60s" repeatCount="indefinite" attributeType="XML" type="rotate" />
  </path>
  <path stroke="#4488ff" class="foreground-stroke" fill="transparent" stroke-width="1.2" opacity="0.95" marker-start="url(#Tail)" d="M 490 540 A 470 470 0 1 1 960 1010 A 470 470 0 0 1 490 540">
    <animateTransform attributeName="transform" from="360 960 540" to="0 960 540" dur="60s" repeatCount="indefinite" attributeType="XML" type="rotate" />
  </path>
  <path stroke="#4488ff" class="foreground-stroke" fill="transparent" stroke-width="1.2" opacity="0.95" marker-start="url(#Tail)" d="M 1430 540 A 470 470 0 1 1 960 70 A 470 470 0 0 1 1430 540">
    <animateTransform attributeName="transform" from="360 960 540" to="0 960 540" dur="60s" repeatCount="indefinite" attributeType="XML" type="rotate" />
  </path>
  <path stroke="#4488ff" class="foreground-stroke" fill="transparent" marker-end="url(#Head)" stroke-width="1.15" opacity="0.9" d="M 495 540 A 465 465 0 1 1 960 1005 A 465 465 0 0 1 495 540">
    <animateTransform attributeName="transform" from="0 960 540" to="360 960 540" dur="30s" repeatCount="indefinite" attributeType="XML" type="rotate" />
  </path>
  <path stroke="#4488ff" class="foreground-stroke" fill="transparent" marker-end="url(#Head)" stroke-width="1.15" opacity="0.9" d="M 1425 540 A 465 465 0 1 1 960 75 A 465 465 0 0 1 1425 540">
    <animateTransform attributeName="transform" from="0 960 540" to="360 960 540" dur="30s" repeatCount="indefinite" attributeType="XML" type="rotate" />
  </path>
  <path stroke="#4488ff" class="foreground-stroke" fill="transparent" stroke-width="1.15" opacity="0.9" marker-start="url(#Tail)" d="M 495 540 A 465 465 0 1 1 960 1005 A 465 465 0 0 1 495 540">
    <animateTransform attributeName="transform" from="360 960 540" to="0 960 540" dur="30s" repeatCount="indefinite" attributeType="XML" type="rotate" />
  </path>
  <path stroke="#4488ff" class="foreground-stroke" fill="transparent" stroke-width="1.15" opacity="0.9" marker-start="url(#Tail)" d="M 1425 540 A 465 465 0 1 1 960 75 A 465 465 0 0 1 1425 540">
    <animateTransform attributeName="transform" from="360 960 540" to="0 960 540" dur="30s" repeatCount="indefinite" attributeType="XML" type="rotate" />
  </path>
  <path stroke="#4488ff" class="foreground-stroke" fill="transparent" marker-end="url(#Head)" stroke-width="1.1" opacity="0.85" d="M 500 540 A 460 460 0 1 1 960 1000 A 460 460 0 0 1 500 540">
    <animateTransform attributeName="transform" from="0 960 540" to="360 960 540" dur="20s" repeatCount="indefinite" attributeType="XML" type="rotate" />
  </path>
  <path stroke="#4488ff" class="foreground-stroke" fill="transparent" marker-end="url(#Head)" stroke-width="1.1" opacity="0.85" d="M 1420 540 A 460 460 0 1 1 960 80 A 460 460 0 0 1 1420 540">
    <animateTransform attributeName="transform" from="0 960 540" to="360 960 540" dur="20s" repeatCount="indefinite" attributeType="XML" type="rotate" />
  </path>
  <path stroke="#4488ff" class="foreground-stroke" fill="transparent" stroke-width="1.1" opacity="0.85" marker-start="url(#Tail)" d="M 500 540 A 460 460 0 1 1 960 1000 A 460 460 0 0 1 500 540">
    <animateTransform attributeName="transform" from="360 960 540" to="0 960 540" dur="20s" repeatCount="indefinite" attributeType="XML" type="rotate" />
  </path>
  <path stroke="#4488ff" class="foreground-stroke" fill="transparent" stroke-width="1.1" opacity="0.85" marker-start="url(#Tail)" d="M 1420 540 A 460 460 0 1 1 960 80 A 460 460 0 0 1 1420 540">
    <animateTransform attributeName="transform" from="360 960 540" to="0 960 540" dur="20s" repeatCount="indefinite" attributeType="XML" type="rotate" />
  </path>
  <path stroke="#4488ff" class="foreground-stroke" fill="transparent" marker-end="url(#Head)" stroke-width="1.05" opacity="0.8" d="M 505 540 A 455 455 0 1 1 960 995 A 455 455 0 0 1 505 540">
    <animateTransform attributeName="transform" from="0 960 540" to="360 960 540" dur="15s" repeatCount="indefinite" attributeType="XML" type="rotate" />
  </path>
  <path stroke="#4488ff" class="foreground-stroke" fill="transparent" marker-end="url(#Head)" stroke-width="1.05" opacity="0.8" d="M 1415 540 A 455 455 0 1 1 960 85 A 455 455 0 0 1 1415 540">
    <animateTransform attributeName="transform" from="0 960 540" to="360 960 540" dur="15s" repeatCount="indefinite" attributeType="XML" type="rotate" />
  </path>
  <path stroke="#4488ff" class="foreground-stroke" fill="transparent" stroke-width="1.05" opacity="0.8" marker-start="url(#Tail)" d="M 505 540 A 455 455 0 1 1 960 995 A 455 455 0 0 1 505 540">
    <animateTransform attributeName="transform" from="360 960 540" to="0 960 540" dur="15s" repeatCount="indefinite" attributeType="XML" type="rotate" />
  </path>
  <path stroke="#4488ff" class="foreground-stroke" fill="transparent" stroke-width="1.05" opacity="0.8" marker-start="url(#Tail)" d="M 1415 540 A 455 455 0 1 1 960 85 A 455 455 0 0 1 1415 540">
    <animateTransform attributeName="transform" from="360 960 540" to="0 960 540" dur="15s" repeatCount="indefinite" attributeType="XML" type="rotate" />
  </path>
  <path stroke="#4488ff" class="foreground-stroke" fill="transparent" marker-end="url(#Head)" stroke-width="1" opacity="0.75" d="M 510 540 A 450 450 0 1 1 960 990 A 450 450 0 0 1 510 540">
    <animateTransform attributeName="transform" from="0 960 540" to="360 960 540" dur="12s" repeatCount="indefinite" attributeType="XML" type="rotate" />
  </path>
  <path stroke="#4488ff" class="foreground-stroke" fill="transparent" marker-end="url(#Head)" stroke-width="1" opacity="0.75" d="M 1410 540 A 450 450 0 1 1 960 90 A 450 450 0 0 1 1410 540">
    <animateTransform attributeName="transform" from="0 960 540" to="360 960 540" dur="12s" repeatCount="indefinite" attributeType="XML" type="rotate" />
  </path>
  <path stroke="#4488ff" class="foreground-stroke" fill="transparent" stroke-width="1" opacity="0.75" marker-start="url(#Tail)" d="M 510 540 A 450 450 0 1 1 960 990 A 450 450 0 0 1 510 540">
    <animateTransform attributeName="transform" from="360 960 540" to="0 960 540" dur="12s" repeatCount="indefinite" attributeType="XML" type="rotate" />
  </path>
  <path stroke="#4488ff" class="foreground-stroke" fill="transparent" stroke-width="1" opacity="0.75" marker-start="url(#Tail)" d="M 1410 540 A 450 450 0 1 1 960 90 A 450 450 0 0 1 1410 540">
    <animateTransform attributeName="transform" from="360 960 540" to="0 960 540" dur="12s" repeatCount="indefinite" attributeType="XML" type="rotate" />
  </path>
  <path stroke="#4488ff" class="foreground-stroke" fill="transparent" marker-end="url(#Head)" stroke-width="0.95" opacity="0.7" d="M 515 540 A 445 445 0 1 1 960 985 A 445 445 0 0 1 515 540">
    <animateTransform attributeName="transform" from="0 960 540" to="360 960 540" dur="10s" repeatCount="indefinite" attributeType="XML" type="rotate" />
  </path>
  <path stroke="#4488ff" class="foreground-stroke" fill="transparent" marker-end="url(#Head)" stroke-width="0.95" opacity="0.7" d="M 1405 540 A 445 445 0 1 1 960 95 A 445 445 0 0 1 1405 540">
    <animateTransform attributeName="transform" from="0 960 540" to="360 960 540" dur="10s" repeatCount="indefinite" attributeType="XML" type="rotate" />
  </path>
  <path stroke="#4488ff" class="foreground-stroke" fill="transparent" stroke-width="0.95" opacity="0.7" marker-start="url(#Tail)" d="M 515 540 A 445 445 0 1 1 960 985 A 445 445 0 0 1 515 540">
    <animateTransform attributeName="transform" from="360 960 540" to="0 960 540" dur="10s" repeatCount="indefinite" attributeType="XML" type="rotate" />
  </path>
  <path stroke="#4488ff" class="foreground-stroke" fill="transparent" stroke-width="0.95" opacity="0.7" marker-start="url(#Tail)" d="M 1405 540 A 445 445 0 1 1 960 95 A 445 445 0 0 1 1405 540">
    <animateTransform attributeName="transform" from="360 960 540" to="0 960 540" dur="10s" repeatCount="indefinite" attributeType="XML" type="rotate" />
  </path>
</svg>
